<?xml version="1.0" standalone="no"?>
<!DOCTYPE svg PUBLIC "-//W3C//DTD SVG 20010904//EN"
 "http://www.w3.org/TR/2001/REC-SVG-20010904/DTD/svg10.dtd">
<svg version="1.0" xmlns="http://www.w3.org/2000/svg"
 width="512.000000pt" height="512.000000pt" viewBox="0 0 512.000000 512.000000"
 preserveAspectRatio="xMidYMid meet">
<metadata>
Created by potrace 1.14, written by Peter Selinger 2001-2017
</metadata>
<g transform="translate(0.000000,512.000000) scale(0.100000,-0.100000)"
fill="#000000" stroke="none">
<path d="M793 5105 c-199 -36 -364 -123 -509 -269 -127 -127 -205 -262 -257
-445 l-22 -76 -3 -1714 c-3 -1886 -5 -1798 58 -1974 88 -242 300 -460 541
-556 178 -71 20 -66 1964 -66 1657 0 1753 1 1815 18 200 56 336 135 467 270
120 124 186 238 240 412 l28 90 0 1750 0 1750 -28 100 c-95 345 -348 598 -692
692 l-100 28 -1715 2 c-1379 1 -1729 -1 -1787 -12z m663 -659 l34 -34 0 -286
0 -286 286 0 286 0 34 -34 c43 -43 47 -100 10 -143 l-24 -28 -294 -5 -293 -5
-5 -293 -5 -294 -28 -24 c-43 -37 -100 -33 -143 10 l-34 34 0 286 0 286 -286
0 -286 0 -35 35 c-32 32 -35 40 -30 77 3 26 15 51 31 67 l26 26 290 3 289 3 3
288 c3 273 4 290 23 311 46 51 104 53 151 6z m2969 -618 c51 -23 72 -109 39
-157 -36 -50 -43 -51 -624 -51 -581 0 -588 1 -624 51 -32 46 -14 128 35 155
33 18 1134 20 1174 2z m-3413 -1926 c15 -9 104 -114 199 -232 94 -118 172
-216 174 -218 1 -1 79 93 173 210 93 117 180 222 192 233 32 29 101 27 134 -4
33 -31 43 -81 24 -119 -8 -15 -96 -130 -196 -255 -100 -125 -182 -231 -182
-237 0 -6 82 -112 182 -237 100 -125 188 -240 196 -255 33 -67 -16 -143 -93
-143 -56 0 -60 3 -263 257 -91 114 -167 207 -168 205 -1 -1 -79 -99 -173 -217
-95 -118 -184 -223 -199 -232 -35 -23 -69 -23 -109 2 -38 23 -57 77 -42 118 5
14 95 132 200 263 l190 238 -187 233 c-103 128 -193 247 -200 264 -38 91 66
179 148 126z m2565 -4 c13 -6 150 -226 352 -562 292 -485 331 -556 331 -592 0
-74 -72 -120 -141 -91 -30 12 -72 77 -366 568 -364 605 -359 596 -308 658 35
41 75 47 132 19z"/>
</g>
</svg>
